<svg xmlns="http://www.w3.org/2000/svg" width="23.9229" height="52.333" viewBox="0 0 23.9229 52.333"><defs><style>.a{fill:#6fad1e;}</style></defs><title>down</title><polygon class="a" points="0 0 0 6.667 2.013 6.667 2.013 2.32 21.885 2.32 21.885 6.667 23.923 6.667 23.923 0 0 0"/><path class="a" d="M12.0771,25.9092V13.91H9.9492V34.8711a6.1607,6.1607,0,0,0-.6474-.8594q-.34-.3706-1.0323-1.0127L4.5771,29.6406l-1.5,1.7686,7.9356,7.1025,7.9365-7.1025-1.5-1.7686L13.7568,32.999q-.6928.6417-1.0322,1.0127a6.0764,6.0764,0,0,0-.6475.8594V25.9092Z"/><polygon class="a" points="21.885 50.013 2.013 50.013 2.013 45.666 0 45.666 0 52.333 23.923 52.333 23.923 45.666 21.885 45.666 21.885 50.013"/></svg>