<svg xmlns="http://www.w3.org/2000/svg" width="54.4" height="71.2" viewBox="0 0 54.4 71.2"><defs><style>.a{fill:#4d4d4d;}.b{fill:#141414;}</style></defs><title>file_link</title><path class="a" d="M15.2,0,0,15.2v56H54.4V0Zm0,4V15.2H4Z"/><path class="b" d="M15.41,54.0718a6.6822,6.6822,0,0,1-4.7276-11.4092l5.66-5.6592,1.9082,1.91-5.6592,5.6582a3.9857,3.9857,0,1,0,5.6377,5.6357L29.5457,38.8892a3.9832,3.9832,0,0,0,.001-5.6348l1.9082-1.91a6.6838,6.6838,0,0,1,0,9.455L20.1385,52.1167A6.665,6.665,0,0,1,15.41,54.0718Z"/><path class="b" d="M22.9451,39.856a6.6839,6.6839,0,0,1,0-9.4551L34.2615,19.0835a6.6858,6.6858,0,0,1,9.4561,9.4541l-5.66,5.6592-1.9082-1.91,5.6592-5.6582a3.9857,3.9857,0,1,0-5.6377-5.6357L24.8543,32.3111a3.9831,3.9831,0,0,0-.001,5.6347Z"/></svg>