<svg xmlns="http://www.w3.org/2000/svg" width="23.9229" height="52.333" viewBox="0 0 23.9229 52.333"><defs><style>.a{fill:#6fad1e;}</style></defs><title>up</title><polygon class="a" points="21.91 50.013 2.038 50.013 2.038 45.666 0 45.666 0 52.333 23.923 52.333 23.923 45.666 21.91 45.666 21.91 50.013"/><path class="a" d="M11.8457,26.4238V38.4229h2.1279V17.4619a6.1532,6.1532,0,0,0,.6475.8594q.34.3706,1.0322,1.0127l3.6924,3.3584,1.5-1.7686L12.91,13.8213,4.9736,20.9238l1.5,1.7686L10.166,19.334q.6929-.6415,1.0322-1.0127a6.0764,6.0764,0,0,0,.6475-.8594v8.9619Z"/><polygon class="a" points="0 6.667 2.038 6.667 2.038 2.32 21.91 2.32 21.91 6.667 23.923 6.667 23.923 0 0 0 0 6.667"/></svg>